{"title":"300 Rise of an Empire(2014)MPEG-4[DaScubaDude]","uid":14521251,"size":1015005224,"categoryP":"video","categoryS":"movies","magnet":"?xt=urn:btih:38ee16cfb79098b4b0c1c1f4beea6540f411c284&amp;dn=300+Rise+of+an+Empire%282014%29MPEG-4%5BDaScubaDude%5D&amp;tr=udp%3A%2F%2Ftracker.leechers-paradise.org%3A6969&amp;tr=udp%3A%2F%2Fzer0day.ch%3A1337&amp;tr=udp%3A%2F%2Fopen.demonii.com%3A1337&amp;tr=udp%3A%2F%2Ftracker.coppersurfer.tk%3A6969&amp;tr=udp%3A%2F%2Fexodus.desync.com%3A6969","seeders":0,"leechers":1,"uploader":"dascuba","files":1,"time":1462393414,"description":"300: Rise of an Empire (2014)\r\nR | 1h 42min | Action, Drama, Fantasy | 7 March 2014 (USA)\r\nGreek general Themistokles leads the charge against invading Persian forces led by mortal-turned-god Xerxes and Artemisia, vengeful commander of the Persian navy.\r\nDirector: Noam Murro\r\nWriters: Zack Snyder (screenplay), Kurt Johnstad (screenplay) |\r\nStars: Sullivan Stapleton, Eva Green, Lena Headey\r\n\r\nGeneral\r\nComplete name                            : 300 Rise of an Empire300_RISE_OF_AN_EMPIRE_Title1.mp4\r\nFormat                                   : MPEG-4\r\nFormat profile                           : Base Media\r\nCodec ID                                 : isom (isom/iso2/avc1/mp41)\r\nFile size                                : 968 MiB\r\nDuration                                 : 1h 42mn\r\nOverall bit rate                         : 1 320 Kbps\r\nMovie name                               : 300_RISE_OF_AN_EMPIRE\r\nGenre                                    : Action\r\nWriting application                      : Lavf54.6.100\r\n\r\nVideo\r\nID                                       : 1\r\nFormat                                   : AVC\r\nFormat/Info                              : Advanced Video Codec\r\nFormat profile                           :   \r\nFormat settings, CABAC                   : No\r\nFormat settings, ReFrames                : 6 frames\r\nCodec ID                                 : avc1\r\nCodec ID/Info                            : Advanced Video Coding\r\nDuration                                 : 1h 42mn\r\nBit rate                                 : 1 186 Kbps\r\nWidth                                    : 720 pixels\r\nHeight                                   : 404 pixels\r\nDisplay aspect ratio                     : 16:9\r\nFrame rate mode                          : Constant\r\nFrame rate                               : 29.970 (30000/1001) fps\r\nColor space                              : YUV\r\nChroma subsampling                       : 4:2:0\r\nBit depth                                : 8 bits\r\nScan type                                : Progressive\r\nBits/(Pixel*Frame)                       : 0.136\r\nStream size                              : 869 MiB (90%)\r\n\r\nAudio\r\nID                                       : 2\r\nFormat                                   : AAC\r\nFormat/Info                              : Advanced Audio Codec\r\nFormat profile                           : LC\r\nCodec ID                                 : 40\r\nDuration                                 : 1h 42mn\r\nBit rate mode                            : Constant\r\nBit rate                                 : 128 Kbps\r\nChannel(s)                               : 2 channels\r\nChannel positions                        : Front: L R\r\nSampling rate                            : 44.1 KHz\r\nFrame rate                               : 43.066 fps (1024 spf)\r\nCompression mode                         : Lossy\r\nStream size                              : 93.8 MiB (10%)\r\nDefault                                  : Yes\r\nAlternate group                          : 1","torrent":{"xt":"urn:btih:38ee16cfb79098b4b0c1c1f4beea6540f411c284","amp;dn":"300+Rise+of+an+Empire%282014%29MPEG-4%5BDaScubaDude%5D","amp;tr":["udp%3A%2F%2Ftracker.leechers-paradise.org%3A6969","udp%3A%2F%2Fzer0day.ch%3A1337","udp%3A%2F%2Fopen.demonii.com%3A1337","udp%3A%2F%2Ftracker.coppersurfer.tk%3A6969","udp%3A%2F%2Fexodus.desync.com%3A6969"],"infoHash":"38ee16cfb79098b4b0c1c1f4beea6540f411c284","infoHashBuffer":{"type":"Buffer","data":[56,238,22,207,183,144,152,180,176,193,193,244,190,234,101,64,244,17,194,132]},"announce":[],"urlList":[]}}